<?xml version="1.0" encoding="utf-8"?>
<!-- Generator: Adobe Illustrator 27.3.1, SVG Export Plug-In . SVG Version: 6.00 Build 0)  -->
<svg version="1.1" id="Layer_1" xmlns="http://www.w3.org/2000/svg" xmlns:xlink="http://www.w3.org/1999/xlink" x="0px" y="0px"
	 viewBox="0 0 49.73 25.3" style="enable-background:new 0 0 49.73 25.3;" xml:space="preserve">
<g>
	<g>
		<path d="M28.75,2.29c-0.06,0.3-0.17,0.58-0.17,0.86c-0.01,2.1-0.01,4.2-0.01,6.3c0,4.2,0,8.4,0.01,12.6
			c0,0.26,0.08,0.53,0.12,0.81c3.49-3.49,6.91-6.92,10.3-10.31C35.64,9.19,32.23,5.78,28.75,2.29z"/>
		<path d="M29.8,23.28c0.01,0.02,0.02,0.05,0.03,0.07c4.23-2.44,8.47-4.88,12.69-7.32c-0.95-0.95-1.87-1.87-2.74-2.74
			C36.46,16.62,33.13,19.95,29.8,23.28z"/>
		<path d="M42.43,9.17c-4.17-2.4-8.34-4.81-12.51-7.22c0,0.02-0.01,0.03-0.01,0.05c3.29,3.29,6.58,6.58,9.85,9.85
			C40.61,11,41.5,10.11,42.43,9.17z"/>
		<path d="M46.7,11.63c-0.95-0.56-1.93-1.08-2.87-1.67c-0.41-0.26-0.66-0.25-1,0.12c-0.61,0.67-1.27,1.3-1.92,1.93
			c-0.18,0.18-0.4,0.31-0.65,0.5c1.01,1,1.93,1.9,2.82,2.8c0.2,0.2,0.34,0.22,0.58,0.08c1.01-0.6,2.04-1.18,3.05-1.77
			C47.65,13.06,47.64,12.18,46.7,11.63z"/>
	</g>
	<g>
		<path d="M19.29,17.43c-3-1.91-3.24-5.65-0.53-7.96c0.12-0.1,0.23-0.2,0.37-0.32c-0.65-0.95-1.53-1.53-2.59-1.86
			c-1.4-0.44-2.75-0.2-4.06,0.39c-0.88,0.4-1.75,0.42-2.63,0.04c-0.25-0.11-0.5-0.2-0.76-0.28C7.28,6.88,5.64,7.23,4.24,8.52
			c-1.3,1.2-1.88,2.76-1.92,4.5c-0.08,3.62,1.18,6.75,3.67,9.37c0.99,1.04,1.88,1.2,3.19,0.62c1.5-0.66,2.98-0.68,4.49,0
			c1.27,0.58,2.18,0.38,3.18-0.59c1.23-1.2,2.07-2.65,2.71-4.24C19.71,17.81,19.64,17.65,19.29,17.43z"/>
		<path d="M11.74,6.75c1.87-0.32,3.51-2.24,3.53-4.16c0.01-0.65-0.05-0.74-0.67-0.55c-0.56,0.17-1.14,0.39-1.61,0.73
			C11.84,3.58,11.06,4.65,11,6.12C10.98,6.78,11.08,6.86,11.74,6.75z"/>
	</g>
</g>
</svg>
